<mxfile host="app.diagrams.net" modified="2021-03-03T08:49:51.112Z" agent="5.0 (Windows NT 10.0; WOW64) AppleWebKit/537.36 (KHTML, like Gecko) Chrome/88.0.4324.182 Safari/537.36" etag="81o-3Q0U0qB0yVBmsAkT" version="14.4.3" type="github">
  <diagram id="8JQXJFjF5QkTHlh9Sl4s" name="Page-1">
    <mxGraphModel dx="868" dy="450" grid="1" gridSize="10" guides="1" tooltips="1" connect="1" arrows="1" fold="1" page="1" pageScale="1" pageWidth="827" pageHeight="1169" math="0" shadow="0">
      <root>
        <mxCell id="0" />
        <mxCell id="1" parent="0" />
        <mxCell id="uFIe9qXt4bBG8xaeoZ07-1" value="synchronized 语义" style="rounded=0;whiteSpace=wrap;html=1;fillColor=#dae8fc;strokeColor=#6c8ebf;sketch=1;" vertex="1" parent="1">
          <mxGeometry x="30" y="30" width="220" height="40" as="geometry" />
        </mxCell>
        <mxCell id="uFIe9qXt4bBG8xaeoZ07-3" value="&lt;blockquote style=&quot;margin: 0 0 0 40px ; border: none ; padding: 0px&quot;&gt;&lt;span style=&quot;text-align: justify&quot;&gt;synchronized（obj）{&lt;br&gt;&lt;/span&gt;&lt;span style=&quot;text-align: justify&quot;&gt;&amp;nbsp; &amp;nbsp; dosomething();&lt;/span&gt;&lt;div style=&quot;text-align: justify&quot;&gt;&lt;span&gt;}&lt;/span&gt;&lt;/div&gt;&lt;/blockquote&gt;" style="rounded=1;whiteSpace=wrap;html=1;align=left;verticalAlign=top;fillColor=#ffe6cc;strokeColor=#d79b00;sketch=1;" vertex="1" parent="1">
          <mxGeometry x="50" y="195" width="170" height="75" as="geometry" />
        </mxCell>
        <mxCell id="uFIe9qXt4bBG8xaeoZ07-5" value="" style="shape=flexArrow;endArrow=classic;html=1;sketch=1;" edge="1" parent="1">
          <mxGeometry width="50" height="50" relative="1" as="geometry">
            <mxPoint x="240" y="235" as="sourcePoint" />
            <mxPoint x="310" y="235" as="targetPoint" />
          </mxGeometry>
        </mxCell>
        <mxCell id="uFIe9qXt4bBG8xaeoZ07-7" value="&lt;blockquote style=&quot;margin: 0 0 0 40px ; border: none ; padding: 0px&quot;&gt;&lt;div style=&quot;text-align: justify&quot;&gt;&lt;br&gt;&lt;/div&gt;&lt;div style=&quot;text-align: justify&quot;&gt;&lt;span&gt;monitorenter;&lt;/span&gt;&lt;/div&gt;&lt;div style=&quot;text-align: justify&quot;&gt;&lt;span&gt;...&lt;/span&gt;&lt;/div&gt;&lt;div style=&quot;text-align: justify&quot;&gt;&lt;span&gt;...&lt;/span&gt;&lt;/div&gt;&lt;div style=&quot;text-align: justify&quot;&gt;&lt;span&gt;...&lt;/span&gt;&lt;/div&gt;&lt;div style=&quot;text-align: justify&quot;&gt;&lt;span&gt;monitorexit;&lt;/span&gt;&lt;/div&gt;&lt;/blockquote&gt;" style="rounded=1;whiteSpace=wrap;html=1;verticalAlign=top;align=left;fillColor=#ffe6cc;strokeColor=#d79b00;sketch=1;" vertex="1" parent="1">
          <mxGeometry x="330" y="160" width="160" height="110" as="geometry" />
        </mxCell>
        <mxCell id="uFIe9qXt4bBG8xaeoZ07-8" value="" style="shape=flexArrow;endArrow=classic;html=1;sketch=1;" edge="1" parent="1">
          <mxGeometry width="50" height="50" relative="1" as="geometry">
            <mxPoint x="500" y="235" as="sourcePoint" />
            <mxPoint x="570" y="235" as="targetPoint" />
          </mxGeometry>
        </mxCell>
        <mxCell id="uFIe9qXt4bBG8xaeoZ07-9" value="&lt;blockquote style=&quot;margin: 0 0 0 40px ; border: none ; padding: 0px&quot;&gt;&lt;div style=&quot;text-align: justify&quot;&gt;&lt;br&gt;&lt;/div&gt;&lt;/blockquote&gt;" style="rounded=1;whiteSpace=wrap;html=1;verticalAlign=top;align=left;fillColor=#ffe6cc;strokeColor=#d79b00;sketch=1;" vertex="1" parent="1">
          <mxGeometry x="590" y="130" width="190" height="140" as="geometry" />
        </mxCell>
        <mxCell id="uFIe9qXt4bBG8xaeoZ07-10" value="&lt;span style=&quot;color: rgb(0, 0, 0); font-family: helvetica; font-size: 12px; font-style: normal; font-weight: 400; letter-spacing: normal; text-indent: 0px; text-transform: none; word-spacing: 0px; background-color: rgb(248, 249, 250); display: inline; float: none;&quot;&gt;生成的对应字节码&lt;/span&gt;" style="text;whiteSpace=wrap;html=1;sketch=1;fillColor=#e1d5e7;strokeColor=#9673a6;align=center;" vertex="1" parent="1">
          <mxGeometry x="360" y="280" width="120" height="30" as="geometry" />
        </mxCell>
        <mxCell id="uFIe9qXt4bBG8xaeoZ07-11" value="&lt;span style=&quot;color: rgb(0, 0, 0); font-family: helvetica; font-size: 12px; font-style: normal; font-weight: 400; letter-spacing: normal; text-indent: 0px; text-transform: none; word-spacing: 0px; background-color: rgb(248, 249, 250); display: inline; float: none;&quot;&gt;伪代码&lt;/span&gt;" style="text;whiteSpace=wrap;html=1;sketch=1;fillColor=#e1d5e7;strokeColor=#9673a6;align=center;" vertex="1" parent="1">
          <mxGeometry x="100" y="280" width="70" height="30" as="geometry" />
        </mxCell>
        <mxCell id="uFIe9qXt4bBG8xaeoZ07-12" value="&lt;b&gt;obj&lt;/b&gt;" style="rounded=0;whiteSpace=wrap;html=1;align=center;fillColor=#f8cecc;strokeColor=#b85450;sketch=1;" vertex="1" parent="1">
          <mxGeometry x="642.5" y="175" width="92.5" height="35" as="geometry" />
        </mxCell>
        <mxCell id="uFIe9qXt4bBG8xaeoZ07-13" value="" style="shape=flexArrow;endArrow=classic;html=1;sketch=1;" edge="1" parent="1">
          <mxGeometry width="50" height="50" relative="1" as="geometry">
            <mxPoint x="684.5" y="120" as="sourcePoint" />
            <mxPoint x="684.5" y="170" as="targetPoint" />
          </mxGeometry>
        </mxCell>
        <mxCell id="uFIe9qXt4bBG8xaeoZ07-14" value="lock" style="edgeLabel;html=1;align=center;verticalAlign=middle;resizable=0;points=[];labelBackgroundColor=none;" vertex="1" connectable="0" parent="uFIe9qXt4bBG8xaeoZ07-13">
          <mxGeometry x="-0.6" y="1" relative="1" as="geometry">
            <mxPoint x="20" y="5" as="offset" />
          </mxGeometry>
        </mxCell>
        <mxCell id="uFIe9qXt4bBG8xaeoZ07-15" value="" style="shape=flexArrow;endArrow=classic;html=1;sketch=1;" edge="1" parent="1">
          <mxGeometry width="50" height="50" relative="1" as="geometry">
            <mxPoint x="684.5" y="220" as="sourcePoint" />
            <mxPoint x="684.5" y="270" as="targetPoint" />
          </mxGeometry>
        </mxCell>
        <mxCell id="uFIe9qXt4bBG8xaeoZ07-16" value="unlock" style="edgeLabel;html=1;align=center;verticalAlign=middle;resizable=0;points=[];labelBackgroundColor=none;" vertex="1" connectable="0" parent="uFIe9qXt4bBG8xaeoZ07-15">
          <mxGeometry x="-0.6" y="1" relative="1" as="geometry">
            <mxPoint x="25" y="5" as="offset" />
          </mxGeometry>
        </mxCell>
        <mxCell id="uFIe9qXt4bBG8xaeoZ07-19" value="&lt;span style=&quot;&quot;&gt;执行的内存操作&lt;/span&gt;" style="text;whiteSpace=wrap;html=1;sketch=1;fillColor=#e1d5e7;strokeColor=#9673a6;align=center;" vertex="1" parent="1">
          <mxGeometry x="630" y="280" width="110" height="30" as="geometry" />
        </mxCell>
      </root>
    </mxGraphModel>
  </diagram>
</mxfile>
